# xmcd CD database file
#
# Track frame offsets:
#	150
#	12012
#	26292
#	39009
#	51304
#	63890
#	74248
#	86457
#	97099
#	109105
#	119661
#	131230
#	141416
#	152666
#	164584
#	180055
#	193074
#	206382
#
# Disc length: 2940 seconds
#
# Revision: 0
# Processed by: cddbd v1.5.1PL0 Copyright (c) Steve Scherf et al.
# Submitted via: CDex 1.50
#
DISCID=f90b7a12
DTITLE=Mills Brother - Lazy River
DYEAR=2004
DGENRE=Jazz
TTITLE0=Caravan
TTITLE1=Carry me back to ol Virginny
TTITLE2=Cherry
TTITLE3=Darling Nelly Gray
TTITLE4=I've found a new baby
TTITLE5=In the shade of the new apple tree
TTITLE6=Lazy river
TTITLE7=Marie
TTITLE8=My walking stick
TTITLE9=Nagasaki
TTITLE10=Sweet Georgia Brown
TTITLE11=Old fashioned love
TTITLE12=Old folks at home
TTITLE13=Paper doll
TTITLE14=Rockin chair
TTITLE15=Sweet Sue, just you
TTITLE16=The flat foot flogee
TTITLE17=Miss Otis regrets
EXTD=YEAR: 2004
EXTT0=
EXTT1=
EXTT2=
EXTT3=
EXTT4=
EXTT5=
EXTT6=
EXTT7=
EXTT8=
EXTT9=
EXTT10=
EXTT11=
EXTT12=
EXTT13=
EXTT14=
EXTT15=
EXTT16=
EXTT17=
PLAYORDER=
